<svg xmlns="http://www.w3.org/2000/svg" width="900" height="570" viewBox="0 0 900 570">
 <style>text{font-family:Arial,'Apple SD Gothic Neo','Noto Sans KR',sans-serif;fill:#1f2937}.title{font-size:28px;font-weight:700}.label{font-size:20px;font-weight:600}.small{font-size:16px;fill:#64748b}.note{font-size:15px;fill:#b45309}</style><rect width="900" height="570" fill="#fff"/><text x="450" y="50" text-anchor="middle" class="title">Clustering: Active - Standby</text>
 <rect x="110" y="100" width="300" height="175" rx="20" fill="#ecfdf5" stroke="#059669" stroke-width="3"/><circle cx="145" cy="135" r="8" fill="#10b981"/><text x="165" y="141" class="small">Active</text><text x="260" y="193" text-anchor="middle" class="label">DB 서버 A</text><text x="260" y="227" text-anchor="middle" class="small">평소 요청 처리</text>
 <rect x="490" y="100" width="300" height="175" rx="20" fill="#f8fafc" stroke="#94a3b8" stroke-width="3" stroke-dasharray="8 6"/><circle cx="525" cy="135" r="8" fill="#94a3b8"/><text x="545" y="141" class="small">Standby</text><text x="640" y="193" text-anchor="middle" class="label">DB 서버 B</text><text x="640" y="227" text-anchor="middle" class="small">장애 시 대신 실행</text>
 <path d="M260 275v70M640 275v70M260 345h380" fill="none" stroke="#475569" stroke-width="3"/><path d="M442 332l8 13 8-13" fill="#475569"/>
 <path d="M410 82h80" stroke="#f59e0b" stroke-width="2"/><path d="M480 76l12 6-12 6" fill="#f59e0b"/><text x="450" y="75" text-anchor="middle" class="note">A 장애 → B로 Failover</text>
 <path d="M300 380v75c0 19 67 34 150 34s150-15 150-34v-75" fill="#e0e7ff" stroke="#4f46e5" stroke-width="3"/><ellipse cx="450" cy="380" rx="150" ry="34" fill="#e0e7ff" stroke="#4f46e5" stroke-width="3"/><path d="M300 380c0 19 67 34 150 34s150-15 150-34" fill="none" stroke="#4f46e5" stroke-width="3"/><text x="450" y="443" text-anchor="middle" class="label">공유 DB 스토리지</text>
</svg>
