<svg xmlns="http://www.w3.org/2000/svg" width="900" height="540" viewBox="0 0 900 540">
 <style>text{font-family:Arial,'Apple SD Gothic Neo','Noto Sans KR',sans-serif;fill:#1f2937}.title{font-size:28px;font-weight:700}.label{font-size:20px;font-weight:600}.small{font-size:16px;fill:#64748b}</style><rect width="900" height="540" fill="#fff"/><text x="450" y="50" text-anchor="middle" class="title">Clustering: Active - Active</text>
 <rect x="110" y="95" width="300" height="175" rx="20" fill="#ecfdf5" stroke="#059669" stroke-width="3"/><circle cx="145" cy="130" r="8" fill="#10b981"/><text x="165" y="136" class="small">Active</text><text x="260" y="188" text-anchor="middle" class="label">DB 서버 A</text><text x="260" y="222" text-anchor="middle" class="small">요청 처리</text>
 <rect x="490" y="95" width="300" height="175" rx="20" fill="#ecfdf5" stroke="#059669" stroke-width="3"/><circle cx="525" cy="130" r="8" fill="#10b981"/><text x="545" y="136" class="small">Active</text><text x="640" y="188" text-anchor="middle" class="label">DB 서버 B</text><text x="640" y="222" text-anchor="middle" class="small">요청 처리</text>
 <path d="M260 270v75M640 270v75M260 345h380" fill="none" stroke="#475569" stroke-width="3"/><path d="M442 332l8 13 8-13" fill="#475569"/>
 <path d="M300 380v75c0 19 67 34 150 34s150-15 150-34v-75" fill="#e0e7ff" stroke="#4f46e5" stroke-width="3"/><ellipse cx="450" cy="380" rx="150" ry="34" fill="#e0e7ff" stroke="#4f46e5" stroke-width="3"/><path d="M300 380c0 19 67 34 150 34s150-15 150-34" fill="none" stroke="#4f46e5" stroke-width="3"/><text x="450" y="443" text-anchor="middle" class="label">공유 DB 스토리지</text>
</svg>
