<svg xmlns="http://www.w3.org/2000/svg" width="900" height="560" viewBox="0 0 900 560">
 <style>text{font-family:Arial,'Apple SD Gothic Neo','Noto Sans KR',sans-serif;fill:#1f2937}.title{font-size:28px;font-weight:700}.label{font-size:20px;font-weight:600}.small{font-size:16px;fill:#64748b}.write{font-size:16px;fill:#b91c1c}.read{font-size:16px;fill:#047857}</style><rect width="900" height="560" fill="#fff"/><text x="450" y="50" text-anchor="middle" class="title">Replication: Master - Slave</text>
 <rect x="105" y="130" width="280" height="155" rx="20" fill="#fef2f2" stroke="#dc2626" stroke-width="3"/><text x="245" y="184" text-anchor="middle" class="label">Master DB</text><text x="245" y="218" text-anchor="middle" class="write">쓰기 (INSERT · UPDATE · DELETE)</text>
 <rect x="515" y="130" width="280" height="155" rx="20" fill="#ecfdf5" stroke="#059669" stroke-width="3"/><text x="655" y="184" text-anchor="middle" class="label">Slave DB</text><text x="655" y="218" text-anchor="middle" class="read">읽기 (SELECT)</text>
 <path d="M385 207h120" stroke="#6366f1" stroke-width="4"/><path d="M493 198l14 9-14 9" fill="#6366f1"/><text x="445" y="186" text-anchor="middle" class="small">변경 데이터 복제</text><text x="445" y="245" text-anchor="middle" class="small">(비동기)</text>
 <path d="M245 285v66M655 285v66" stroke="#475569" stroke-width="3"/><path d="M237 339l8 13 8-13M647 339l8 13 8-13" fill="#475569"/>
 <path d="M120 385v70c0 18 56 32 125 32s125-14 125-32v-70" fill="#fee2e2" stroke="#dc2626" stroke-width="3"/><ellipse cx="245" cy="385" rx="125" ry="32" fill="#fee2e2" stroke="#dc2626" stroke-width="3"/><path d="M120 385c0 18 56 32 125 32s125-14 125-32" fill="none" stroke="#dc2626" stroke-width="3"/><text x="245" y="440" text-anchor="middle" class="label">Master 저장소</text>
 <path d="M530 385v70c0 18 56 32 125 32s125-14 125-32v-70" fill="#d1fae5" stroke="#059669" stroke-width="3"/><ellipse cx="655" cy="385" rx="125" ry="32" fill="#d1fae5" stroke="#059669" stroke-width="3"/><path d="M530 385c0 18 56 32 125 32s125-14 125-32" fill="none" stroke="#059669" stroke-width="3"/><text x="655" y="440" text-anchor="middle" class="label">Slave 저장소</text>
</svg>
